<?xml version="1.0" encoding="utf-8"?>
<!-- Generator: Adobe Illustrator 24.0.0, SVG Export Plug-In . SVG Version: 6.00 Build 0)  -->
<svg version="1.1" id="Capa_1" xmlns="http://www.w3.org/2000/svg" xmlns:xlink="http://www.w3.org/1999/xlink" x="0px" y="0px"
	 viewBox="0 0 512 512" style="enable-background:new 0 0 512 512;" xml:space="preserve">
<g transform="matrix(0.642612 0 0 0.642612 105.943 105.943)">
	<g>
		<g>
			<path d="M127.1,175.7v-19.8c-19.8-16.5-33-41.3-33-69.4c0-49.5,41.3-90.8,90.8-90.8s90.8,41.3,90.8,90.8
				c0,21.5-8.3,42.9-21.5,57.8c6.6,0,11.6,1.7,18.2,3.3c13.2-18.2,19.8-39.6,19.8-62.8c0-59.5-47.9-107.4-107.4-107.4
				S77.6,25.4,77.6,84.9C77.6,122.9,97.4,155.9,127.1,175.7z"/>
			<path d="M259.3,84.9c0-41.3-33-74.3-74.3-74.3s-74.3,33-74.3,74.3c0,18.2,6.6,34.7,16.5,46.2V84.9c0-31.4,26.4-57.8,57.8-57.8
				s57.8,26.4,57.8,57.8v46.2C252.7,119.5,259.3,103,259.3,84.9z"/>
			<path d="M383.1,208.7c-9.9,0-18.2,3.3-24.8,8.3l0,0c0-23.1-18.2-41.3-41.3-41.3c-9.9,0-19.8,3.3-28.1,9.9
				c-6.6-16.5-21.5-26.4-38-26.4c-9.9,0-18.2,3.3-24.8,8.3V84.9c0-23.1-18.2-41.3-41.3-41.3s-41.3,18.2-41.3,41.3v147
				c-33-29.7-69.4-52.9-92.5-29.7c-33,33,36.3,97.4,89.2,194.9c38,67.7,90.8,92.5,143.7,92.5c77.6,0,140.4-62.8,140.4-140.4V250
				C424.4,226.9,406.3,208.7,383.1,208.7z M407.9,286.4v62.8c0,64.4-56.2,123.9-123.9,123.9c-62.8,0-99.1-34.7-128.8-82.6
				c-64.4-109-110.7-158.6-92.5-176.7c18.2-18.2,62.8,21.5,97.4,57.8V84.9c0-13.2,11.6-24.8,24.8-24.8s24.8,11.6,24.8,24.8v173.4
				h16.5v-57.8c0-13.2,11.6-24.8,24.8-24.8c13.2,0,24.8,11.6,24.8,24.8v41.3h16.5V217c0-13.2,11.6-24.8,24.8-24.8
				c13.2,0,24.8,11.6,24.8,24.8v41.3h16.5V250c0-13.2,11.6-24.8,24.8-24.8c13.2,0,24.8,11.6,24.8,24.8L407.9,286.4L407.9,286.4z"/>
		</g>
	</g>
</g>
</svg>
